# xmcd CD database file generated by OrangeCD 5.2
#
# Track frame offsets:
#	150
#	6614
#	25274
#	44976
#	69489
#	91020
#	116057
#	139813
#	167421
#	188921
#	213298
#
# Disc length: 3096 seconds
#
# Revision: 0
# Processed by: cddbd v1.5.1PL0 Copyright (c) Steve Scherf et al.
# Submitted via: OrangeCD 5.2
#
DISCID=9b0c160b
DTITLE=Brownie McGhee - Chicago Blues Festival, 1995
DYEAR=1995
DGENRE=Blues
TTITLE0=Intro
TTITLE1=Don't Lie to Me
TTITLE2=All Day Steady
TTITLE3=I Feel So Good
TTITLE4=Jelly Roll Blues
TTITLE5=Walkin' my blues Away
TTITLE6=Rocks and Gravel
TTITLE7=The Blues had a Baby
TTITLE8=Just a Dream
TTITLE9=Rainy Day
TTITLE10=Walk On
EXTD=
EXTT0=
EXTT1=
EXTT2=
EXTT3=
EXTT4=
EXTT5=
EXTT6=
EXTT7=
EXTT8=
EXTT9=
EXTT10=
PLAYORDER=
